<mxfile host="app.diagrams.net" modified="2023-05-29T09:14:36.034Z" agent="Mozilla/5.0 (Windows NT 10.0; Win64; x64) AppleWebKit/537.36 (KHTML, like Gecko) Chrome/113.0.0.0 Safari/537.36" etag="AAj3xUnCdU1a_YT5Htjr" version="21.3.4" type="github">
  <diagram id="C5RBs43oDa-KdzZeNtuy" name="Page-1">
    <mxGraphModel dx="1430" dy="775" grid="1" gridSize="10" guides="1" tooltips="1" connect="1" arrows="1" fold="1" page="1" pageScale="1" pageWidth="827" pageHeight="1169" math="0" shadow="0">
      <root>
        <mxCell id="WIyWlLk6GJQsqaUBKTNV-0" />
        <mxCell id="WIyWlLk6GJQsqaUBKTNV-1" parent="WIyWlLk6GJQsqaUBKTNV-0" />
        <mxCell id="Q33sTQYiLbo9IT7X74FS-3" value="" style="edgeStyle=orthogonalEdgeStyle;rounded=0;orthogonalLoop=1;jettySize=auto;html=1;" edge="1" parent="WIyWlLk6GJQsqaUBKTNV-1" source="Q33sTQYiLbo9IT7X74FS-1" target="Q33sTQYiLbo9IT7X74FS-2">
          <mxGeometry relative="1" as="geometry" />
        </mxCell>
        <mxCell id="Q33sTQYiLbo9IT7X74FS-1" value="暂停/继续功能" style="rounded=1;whiteSpace=wrap;html=1;" vertex="1" parent="WIyWlLk6GJQsqaUBKTNV-1">
          <mxGeometry x="321" y="90" width="120" height="60" as="geometry" />
        </mxCell>
        <mxCell id="Q33sTQYiLbo9IT7X74FS-5" value="" style="edgeStyle=orthogonalEdgeStyle;rounded=0;orthogonalLoop=1;jettySize=auto;html=1;" edge="1" parent="WIyWlLk6GJQsqaUBKTNV-1" source="Q33sTQYiLbo9IT7X74FS-2" target="Q33sTQYiLbo9IT7X74FS-4">
          <mxGeometry relative="1" as="geometry" />
        </mxCell>
        <mxCell id="Q33sTQYiLbo9IT7X74FS-2" value="&lt;p class=&quot;MsoNormal&quot;&gt;获取目的地；&lt;span style=&quot;mso-spacerun:&#39;yes&#39;;font-family:黑体;color:rgb(51,51,51);&lt;br/&gt;font-size:11.0000pt;&quot;&gt;&lt;/span&gt;&lt;/p&gt;&lt;p class=&quot;MsoNormal&quot;&gt;动作未完成&lt;/p&gt;" style="rounded=1;whiteSpace=wrap;html=1;" vertex="1" parent="WIyWlLk6GJQsqaUBKTNV-1">
          <mxGeometry x="320" y="180" width="120" height="60" as="geometry" />
        </mxCell>
        <mxCell id="Q33sTQYiLbo9IT7X74FS-7" value="" style="edgeStyle=orthogonalEdgeStyle;rounded=0;orthogonalLoop=1;jettySize=auto;html=1;entryX=0.5;entryY=0;entryDx=0;entryDy=0;" edge="1" parent="WIyWlLk6GJQsqaUBKTNV-1" source="Q33sTQYiLbo9IT7X74FS-4" target="Q33sTQYiLbo9IT7X74FS-6">
          <mxGeometry relative="1" as="geometry">
            <mxPoint x="580" y="390" as="targetPoint" />
          </mxGeometry>
        </mxCell>
        <mxCell id="Q33sTQYiLbo9IT7X74FS-4" value="&lt;p class=&quot;MsoNormal&quot;&gt;设置速度和开始运动&lt;br&gt;&lt;/p&gt;" style="rounded=1;whiteSpace=wrap;html=1;" vertex="1" parent="WIyWlLk6GJQsqaUBKTNV-1">
          <mxGeometry x="320" y="280" width="120" height="60" as="geometry" />
        </mxCell>
        <mxCell id="Q33sTQYiLbo9IT7X74FS-9" value="&lt;br&gt;是" style="edgeStyle=orthogonalEdgeStyle;rounded=0;orthogonalLoop=1;jettySize=auto;html=1;" edge="1" parent="WIyWlLk6GJQsqaUBKTNV-1" source="Q33sTQYiLbo9IT7X74FS-6" target="Q33sTQYiLbo9IT7X74FS-8">
          <mxGeometry relative="1" as="geometry" />
        </mxCell>
        <mxCell id="Q33sTQYiLbo9IT7X74FS-6" value="动作未完成" style="rhombus;whiteSpace=wrap;html=1;rounded=1;" vertex="1" parent="WIyWlLk6GJQsqaUBKTNV-1">
          <mxGeometry x="340" y="370" width="80" height="80" as="geometry" />
        </mxCell>
        <mxCell id="Q33sTQYiLbo9IT7X74FS-14" value="" style="edgeStyle=orthogonalEdgeStyle;rounded=0;orthogonalLoop=1;jettySize=auto;html=1;" edge="1" parent="WIyWlLk6GJQsqaUBKTNV-1" source="Q33sTQYiLbo9IT7X74FS-8" target="Q33sTQYiLbo9IT7X74FS-13">
          <mxGeometry relative="1" as="geometry" />
        </mxCell>
        <mxCell id="Q33sTQYiLbo9IT7X74FS-8" value="设置速度和开始运动" style="whiteSpace=wrap;html=1;rounded=1;" vertex="1" parent="WIyWlLk6GJQsqaUBKTNV-1">
          <mxGeometry x="320" y="510" width="120" height="60" as="geometry" />
        </mxCell>
        <mxCell id="Q33sTQYiLbo9IT7X74FS-17" value="是" style="edgeStyle=orthogonalEdgeStyle;rounded=0;orthogonalLoop=1;jettySize=auto;html=1;" edge="1" parent="WIyWlLk6GJQsqaUBKTNV-1" source="Q33sTQYiLbo9IT7X74FS-10" target="Q33sTQYiLbo9IT7X74FS-16">
          <mxGeometry relative="1" as="geometry" />
        </mxCell>
        <mxCell id="Q33sTQYiLbo9IT7X74FS-19" value="否" style="edgeStyle=orthogonalEdgeStyle;rounded=0;orthogonalLoop=1;jettySize=auto;html=1;" edge="1" parent="WIyWlLk6GJQsqaUBKTNV-1" source="Q33sTQYiLbo9IT7X74FS-10" target="Q33sTQYiLbo9IT7X74FS-18">
          <mxGeometry relative="1" as="geometry" />
        </mxCell>
        <mxCell id="Q33sTQYiLbo9IT7X74FS-10" value="到位？" style="rhombus;whiteSpace=wrap;html=1;rounded=1;" vertex="1" parent="WIyWlLk6GJQsqaUBKTNV-1">
          <mxGeometry x="340" y="690" width="80" height="80" as="geometry" />
        </mxCell>
        <mxCell id="Q33sTQYiLbo9IT7X74FS-15" value="" style="edgeStyle=orthogonalEdgeStyle;rounded=0;orthogonalLoop=1;jettySize=auto;html=1;" edge="1" parent="WIyWlLk6GJQsqaUBKTNV-1" source="Q33sTQYiLbo9IT7X74FS-13" target="Q33sTQYiLbo9IT7X74FS-10">
          <mxGeometry relative="1" as="geometry" />
        </mxCell>
        <mxCell id="Q33sTQYiLbo9IT7X74FS-13" value="等待到位" style="whiteSpace=wrap;html=1;rounded=1;" vertex="1" parent="WIyWlLk6GJQsqaUBKTNV-1">
          <mxGeometry x="320" y="600" width="120" height="60" as="geometry" />
        </mxCell>
        <mxCell id="Q33sTQYiLbo9IT7X74FS-16" value="指令完成" style="whiteSpace=wrap;html=1;rounded=1;" vertex="1" parent="WIyWlLk6GJQsqaUBKTNV-1">
          <mxGeometry x="320" y="800" width="120" height="60" as="geometry" />
        </mxCell>
        <mxCell id="Q33sTQYiLbo9IT7X74FS-21" value="" style="edgeStyle=orthogonalEdgeStyle;rounded=0;orthogonalLoop=1;jettySize=auto;html=1;" edge="1" parent="WIyWlLk6GJQsqaUBKTNV-1" source="Q33sTQYiLbo9IT7X74FS-18" target="Q33sTQYiLbo9IT7X74FS-20">
          <mxGeometry relative="1" as="geometry" />
        </mxCell>
        <mxCell id="Q33sTQYiLbo9IT7X74FS-18" value="指令未完成" style="whiteSpace=wrap;html=1;rounded=1;" vertex="1" parent="WIyWlLk6GJQsqaUBKTNV-1">
          <mxGeometry x="480" y="700" width="120" height="60" as="geometry" />
        </mxCell>
        <mxCell id="Q33sTQYiLbo9IT7X74FS-23" value="&lt;br&gt;是" style="edgeStyle=orthogonalEdgeStyle;rounded=0;orthogonalLoop=1;jettySize=auto;html=1;" edge="1" parent="WIyWlLk6GJQsqaUBKTNV-1" source="Q33sTQYiLbo9IT7X74FS-20" target="Q33sTQYiLbo9IT7X74FS-22">
          <mxGeometry x="-0.6" relative="1" as="geometry">
            <mxPoint as="offset" />
          </mxGeometry>
        </mxCell>
        <mxCell id="Q33sTQYiLbo9IT7X74FS-20" value="暂停？" style="rhombus;whiteSpace=wrap;html=1;rounded=1;" vertex="1" parent="WIyWlLk6GJQsqaUBKTNV-1">
          <mxGeometry x="500" y="780" width="80" height="80" as="geometry" />
        </mxCell>
        <mxCell id="Q33sTQYiLbo9IT7X74FS-28" value="" style="edgeStyle=orthogonalEdgeStyle;rounded=0;orthogonalLoop=1;jettySize=auto;html=1;" edge="1" parent="WIyWlLk6GJQsqaUBKTNV-1" source="Q33sTQYiLbo9IT7X74FS-22" target="Q33sTQYiLbo9IT7X74FS-27">
          <mxGeometry relative="1" as="geometry" />
        </mxCell>
        <mxCell id="Q33sTQYiLbo9IT7X74FS-22" value="阻塞" style="whiteSpace=wrap;html=1;rounded=1;" vertex="1" parent="WIyWlLk6GJQsqaUBKTNV-1">
          <mxGeometry x="480" y="910" width="120" height="60" as="geometry" />
        </mxCell>
        <mxCell id="Q33sTQYiLbo9IT7X74FS-26" value="&lt;br&gt;是" style="edgeStyle=orthogonalEdgeStyle;rounded=0;orthogonalLoop=1;jettySize=auto;html=1;entryX=0.5;entryY=0;entryDx=0;entryDy=0;exitX=0.5;exitY=1;exitDx=0;exitDy=0;" edge="1" parent="WIyWlLk6GJQsqaUBKTNV-1" source="Q33sTQYiLbo9IT7X74FS-16" target="Q33sTQYiLbo9IT7X74FS-6">
          <mxGeometry relative="1" as="geometry">
            <mxPoint x="340.0344827586209" y="970.0344827586209" as="sourcePoint" />
            <mxPoint x="500" y="350" as="targetPoint" />
            <Array as="points">
              <mxPoint x="380" y="970" />
              <mxPoint x="250" y="970" />
              <mxPoint x="250" y="350" />
              <mxPoint x="380" y="350" />
            </Array>
          </mxGeometry>
        </mxCell>
        <mxCell id="Q33sTQYiLbo9IT7X74FS-29" value="是" style="edgeStyle=orthogonalEdgeStyle;rounded=0;orthogonalLoop=1;jettySize=auto;html=1;entryX=0.5;entryY=0;entryDx=0;entryDy=0;" edge="1" parent="WIyWlLk6GJQsqaUBKTNV-1" source="Q33sTQYiLbo9IT7X74FS-27" target="Q33sTQYiLbo9IT7X74FS-6">
          <mxGeometry relative="1" as="geometry">
            <Array as="points">
              <mxPoint x="770" y="940" />
              <mxPoint x="770" y="350" />
              <mxPoint x="380" y="350" />
            </Array>
          </mxGeometry>
        </mxCell>
        <mxCell id="Q33sTQYiLbo9IT7X74FS-27" value="继续？" style="rhombus;whiteSpace=wrap;html=1;rounded=1;" vertex="1" parent="WIyWlLk6GJQsqaUBKTNV-1">
          <mxGeometry x="670" y="900" width="80" height="80" as="geometry" />
        </mxCell>
      </root>
    </mxGraphModel>
  </diagram>
</mxfile>
